<?xml version="1.0" standalone="no"?>
<!DOCTYPE svg PUBLIC "-//W3C//DTD SVG 1.1//EN" "http://www.w3.org/Graphics/SVG/1.1/DTD/svg11.dtd">

<svg style="stroke-linejoin:round; stroke:black; stroke-width:0.5pt; text-anchor:middle; fill:none" xmlns="http://www.w3.org/2000/svg" font-family="Helvetica, Arial, FreeSans, Sans, sans, sans-serif" height="400px" width="400px" version="1.1" xmlns:xlink="http://www.w3.org/1999/xlink" viewBox="0 0 100 100">

<g id="Tubes">

<path stroke-width="0.2" stroke="#eeeeee" fill="#cccccc" d="M60 97.9C60 97.9 64.4444 98.5833 66.6667 98.5C68.8889 98.4167 71.1111 97.5 73.3333 97.4C75.5556 97.3 77.7778 98 80 97.9C82.2222 97.8 84.4444 96.9 86.6667 96.8C88.8889 96.7 91.1111 96.9 93.3333 97.3C95.5556 97.7 100 99.2 100 99.2" />

<path stroke-width="0.2" stroke="#eeeeee" fill="#cccccc" d="M60 97.9C60 97.9 64.4444 98.5833 66.6667 98.5C68.8889 98.4167 71.1111 97.5 73.3333 97.4C75.5556 97.3 77.7778 98 80 97.9C82.2222 97.8 84.4444 96.9 86.6667 96.8C88.8889 96.7 91.1111 96.9 93.3333 97.3C95.5556 97.7 100 99.2 100 99.2" />

<path stroke-width="0.2" stroke="#eeeeee" fill="#cccccc" d="M0 99.4C0 99.4 4.44444 99.1 6.66667 99C8.88889 98.9 11.1111 99 13.3333 98.8C15.5556 98.6 17.7778 97.9667 20 97.8C22.2222 97.6333 24.4444 97.9833 26.6667 97.8C28.8889 97.6167 31.1111 96.7833 33.3333 96.7C35.5556 96.6167 37.7778 97.3167 40 97.3C42.2222 97.2833 44.4444 96.4833 46.6667 96.6C48.8889 96.7167 53.3333 98 53.3333 98" />

<path stroke-width="0.2" stroke="#eeeeee" fill="#cccccc" d="M0 99.4C0 99.4 4.44444 99.1 6.66667 99C8.88889 98.9 11.1111 99 13.3333 98.8C15.5556 98.6 17.7778 97.9667 20 97.8C22.2222 97.6333 24.4444 97.9833 26.6667 97.8C28.8889 97.6167 31.1111 96.7833 33.3333 96.7C35.5556 96.6167 37.7778 97.3167 40 97.3C42.2222 97.2833 44.4444 96.4833 46.6667 96.6C48.8889 96.7167 53.3333 98 53.3333 98" />

<path stroke-width="0.2" stroke="#eeeeee" fill="#cccccc" d="M53.3333 96.1C53.3333 96.1 57.7778 95.4833 60 95.5C62.2222 95.5167 64.4444 96.35 66.6667 96.2C68.8889 96.05 71.1111 95.0667 73.3333 94.6C75.5556 94.1333 77.7778 93.7333 80 93.4C82.2222 93.0667 84.4444 92.8 86.6667 92.6C88.8889 92.4 91.1111 91.35 93.3333 92.2C95.5556 93.05 100 97.7 100 97.7" />

<path stroke-width="0.2" stroke="#eeeeee" fill="#cccccc" d="M53.3333 96.1C53.3333 96.1 57.7778 95.4833 60 95.5C62.2222 95.5167 64.4444 96.35 66.6667 96.2C68.8889 96.05 71.1111 95.0667 73.3333 94.6C75.5556 94.1333 77.7778 93.7333 80 93.4C82.2222 93.0667 84.4444 92.8 86.6667 92.6C88.8889 92.4 91.1111 91.35 93.3333 92.2C95.5556 93.05 100 97.7 100 97.7" />

<path stroke-width="0.2" stroke="#eeeeee" fill="#cccccc" d="M13.3333 99.4C13.3333 99.4 17.7778 98.2833 20 98.1C22.2222 97.9167 24.4444 98.35 26.6667 98.3C28.8889 98.25 31.1111 97.8333 33.3333 97.8C35.5556 97.7667 37.7778 98.25 40 98.1C42.2222 97.95 44.4444 97.0833 46.6667 96.9C48.8889 96.7167 51.1111 97 53.3333 97C55.5556 97 60 96.9 60 96.9" />

<path stroke-width="0.2" stroke="#eeeeee" fill="#cccccc" d="M13.3333 99.4C13.3333 99.4 17.7778 98.2833 20 98.1C22.2222 97.9167 24.4444 98.35 26.6667 98.3C28.8889 98.25 31.1111 97.8333 33.3333 97.8C35.5556 97.7667 37.7778 98.25 40 98.1C42.2222 97.95 44.4444 97.0833 46.6667 96.9C48.8889 96.7167 51.1111 97 53.3333 97C55.5556 97 60 96.9 60 96.9" />

<path stroke-width="0.2" stroke="#eeeeee" fill="#cccccc" d="M0 99.4C0 99.4 4.44444 99.0667 6.66667 99C8.88889 98.9333 11.1111 99.2333 13.3333 99C15.5556 98.7667 17.7778 97.8667 20 97.6C22.2222 97.3333 24.4444 97.5833 26.6667 97.4C28.8889 97.2167 31.1111 96.5167 33.3333 96.5C35.5556 96.4833 37.7778 97.3333 40 97.3C42.2222 97.2667 44.4444 96.5833 46.6667 96.3C48.8889 96.0167 51.1111 95.8167 53.3333 95.6C55.5556 95.3833 57.7778 95 60 95C62.2222 95 64.4444 95.7 66.6667 95.6C68.8889 95.5 73.3333 94.4 73.3333 94.4" />

<path stroke-width="0.2" stroke="#eeeeee" fill="#cccccc" d="M0 99.4C0 99.4 4.44444 99.0667 6.66667 99C8.88889 98.9333 11.1111 99.2333 13.3333 99C15.5556 98.7667 17.7778 97.8667 20 97.6C22.2222 97.3333 24.4444 97.5833 26.6667 97.4C28.8889 97.2167 31.1111 96.5167 33.3333 96.5C35.5556 96.4833 37.7778 97.3333 40 97.3C42.2222 97.2667 44.4444 96.5833 46.6667 96.3C48.8889 96.0167 51.1111 95.8167 53.3333 95.6C55.5556 95.3833 57.7778 95 60 95C62.2222 95 64.4444 95.7 66.6667 95.6C68.8889 95.5 73.3333 94.4 73.3333 94.4" />

<path stroke-width="0.2" stroke="#eeeeee" fill="#cccccc" d="M0 99.2C0 99.2 4.44444 99.4 6.66667 99.4C8.88889 99.4 11.1111 99.3667 13.3333 99.2C15.5556 99.0333 17.7778 98.55 20 98.4C22.2222 98.25 24.4444 98.1833 26.6667 98.3C28.8889 98.4167 33.3333 99.1 33.3333 99.1" />

<path stroke-width="0.2" stroke="#eeeeee" fill="#cccccc" d="M0 99.2C0 99.2 4.44444 99.4 6.66667 99.4C8.88889 99.4 11.1111 99.3667 13.3333 99.2C15.5556 99.0333 17.7778 98.55 20 98.4C22.2222 98.25 24.4444 98.1833 26.6667 98.3C28.8889 98.4167 33.3333 99.1 33.3333 99.1" />

<path stroke-width="0.2" stroke="#eeeeee" fill="#cccccc" d="M0 98.9C0 98.9 4.44444 98.8667 6.66667 98.8C8.88889 98.7333 11.1111 98.7167 13.3333 98.5C15.5556 98.2833 17.7778 97.6833 20 97.5C22.2222 97.3167 24.4444 97.5667 26.6667 97.4C28.8889 97.2333 31.1111 96.5 33.3333 96.5C35.5556 96.5 37.7778 97.45 40 97.4C42.2222 97.35 44.4444 96.5 46.6667 96.2C48.8889 95.9 51.1111 95.8 53.3333 95.6C55.5556 95.4 57.7778 95 60 95C62.2222 95 64.4444 95.6667 66.6667 95.6C68.8889 95.5333 71.1111 94.95 73.3333 94.6C75.5556 94.25 77.7778 93.8833 80 93.5C82.2222 93.1167 84.4444 92.5 86.6667 92.3C88.8889 92.1 91.1111 91.35 93.3333 92.3C95.5556 93.25 100 98 100 98" />

<path stroke-width="0.2" stroke="#eeeeee" fill="#cccccc" d="M0 98.9C0 98.9 4.44444 98.8667 6.66667 98.8C8.88889 98.7333 11.1111 98.7167 13.3333 98.5C15.5556 98.2833 17.7778 97.6833 20 97.5C22.2222 97.3167 24.4444 97.5667 26.6667 97.4C28.8889 97.2333 31.1111 96.5 33.3333 96.5C35.5556 96.5 37.7778 97.45 40 97.4C42.2222 97.35 44.4444 96.5 46.6667 96.2C48.8889 95.9 51.1111 95.8 53.3333 95.6C55.5556 95.4 57.7778 95 60 95C62.2222 95 64.4444 95.6667 66.6667 95.6C68.8889 95.5333 71.1111 94.95 73.3333 94.6C75.5556 94.25 77.7778 93.8833 80 93.5C82.2222 93.1167 84.4444 92.5 86.6667 92.3C88.8889 92.1 91.1111 91.35 93.3333 92.3C95.5556 93.25 100 98 100 98" />

<path stroke-width="0.2" stroke="#eeeeee" fill="#cccccc" d="M20 99.7C20 99.7 24.4444 99.8 26.6667 99.7C28.8889 99.6 31.1111 99.1 33.3333 99.1C35.5556 99.1 37.7778 99.7667 40 99.7C42.2222 99.6333 44.4444 98.7667 46.6667 98.7C48.8889 98.6333 53.3333 99.3 53.3333 99.3" />

<path stroke-width="0.2" stroke="#eeeeee" fill="#cccccc" d="M20 99.7C20 99.7 24.4444 99.8 26.6667 99.7C28.8889 99.6 31.1111 99.1 33.3333 99.1C35.5556 99.1 37.7778 99.7667 40 99.7C42.2222 99.6333 44.4444 98.7667 46.6667 98.7C48.8889 98.6333 53.3333 99.3 53.3333 99.3" />

<path stroke-width="0.2" stroke="#eeeeee" fill="#cccccc" d="M20 98.6C20 98.6 24.4444 98.5833 26.6667 98.5C28.8889 98.4167 31.1111 98.1667 33.3333 98.1C35.5556 98.0333 37.7778 98.2 40 98.1C42.2222 98 44.4444 97.6 46.6667 97.5C48.8889 97.4 51.1111 97.35 53.3333 97.5C55.5556 97.65 60 98.4 60 98.4" />

<path stroke-width="0.2" stroke="#eeeeee" fill="#cccccc" d="M20 98.6C20 98.6 24.4444 98.5833 26.6667 98.5C28.8889 98.4167 31.1111 98.1667 33.3333 98.1C35.5556 98.0333 37.7778 98.2 40 98.1C42.2222 98 44.4444 97.6 46.6667 97.5C48.8889 97.4 51.1111 97.35 53.3333 97.5C55.5556 97.65 60 98.4 60 98.4" />

<path stroke-width="0.2" stroke="#eeeeee" fill="#cccccc" d="M60 96.1C60 96.1 64.4444 96.7667 66.6667 96.7C68.8889 96.6333 71.1111 96.0833 73.3333 95.7C75.5556 95.3167 77.7778 94.8 80 94.4C82.2222 94 84.4444 93.2833 86.6667 93.3C88.8889 93.3167 93.3333 94.5 93.3333 94.5" />

<path stroke-width="0.2" stroke="#eeeeee" fill="#cccccc" d="M60 96.1C60 96.1 64.4444 96.7667 66.6667 96.7C68.8889 96.6333 71.1111 96.0833 73.3333 95.7C75.5556 95.3167 77.7778 94.8 80 94.4C82.2222 94 84.4444 93.2833 86.6667 93.3C88.8889 93.3167 93.3333 94.5 93.3333 94.5" />

<path stroke-width="0.2" stroke="#eeeeee" fill="#cccccc" d="M13.3333 99.9C13.3333 99.9 17.7778 98.4667 20 98.2C22.2222 97.9333 24.4444 98.2833 26.6667 98.3C28.8889 98.3167 31.1111 98.3167 33.3333 98.3C35.5556 98.2833 37.7778 98.1833 40 98.2C42.2222 98.2167 46.6667 98.4 46.6667 98.4" />

<path stroke-width="0.2" stroke="#eeeeee" fill="#cccccc" d="M13.3333 99.9C13.3333 99.9 17.7778 98.4667 20 98.2C22.2222 97.9333 24.4444 98.2833 26.6667 98.3C28.8889 98.3167 31.1111 98.3167 33.3333 98.3C35.5556 98.2833 37.7778 98.1833 40 98.2C42.2222 98.2167 46.6667 98.4 46.6667 98.4" />

<path stroke-width="0.2" stroke="#eeeeee" fill="#cccccc" d="M33.3333 98.7C33.3333 98.7 37.7778 98.65 40 98.5C42.2222 98.35 44.4444 98.0833 46.6667 97.8C48.8889 97.5167 51.1111 97.05 53.3333 96.8C55.5556 96.55 57.7778 96.45 60 96.3C62.2222 96.15 64.4444 96.1833 66.6667 95.9C68.8889 95.6167 71.1111 95.0167 73.3333 94.6C75.5556 94.1833 77.7778 93.75 80 93.4C82.2222 93.05 84.4444 92.7333 86.6667 92.5C88.8889 92.2667 91.1111 91.15 93.3333 92C95.5556 92.85 100 97.6 100 97.6" />

<path stroke-width="0.2" stroke="#eeeeee" fill="#cccccc" d="M33.3333 98.7C33.3333 98.7 37.7778 98.65 40 98.5C42.2222 98.35 44.4444 98.0833 46.6667 97.8C48.8889 97.5167 51.1111 97.05 53.3333 96.8C55.5556 96.55 57.7778 96.45 60 96.3C62.2222 96.15 64.4444 96.1833 66.6667 95.9C68.8889 95.6167 71.1111 95.0167 73.3333 94.6C75.5556 94.1833 77.7778 93.75 80 93.4C82.2222 93.05 84.4444 92.7333 86.6667 92.5C88.8889 92.2667 91.1111 91.15 93.3333 92C95.5556 92.85 100 97.6 100 97.6" />

<path stroke-width="0.2" stroke="#eeeeee" fill="#cccccc" d="M66.6667 97.1C66.6667 97.1 71.1111 96.4 73.3333 96.1C75.5556 95.8 77.7778 95.6667 80 95.3C82.2222 94.9333 84.4444 93.9833 86.6667 93.9C88.8889 93.8167 91.1111 94.05 93.3333 94.8C95.5556 95.55 100 98.4 100 98.4" />

<path stroke-width="0.2" stroke="#eeeeee" fill="#cccccc" d="M66.6667 97.1C66.6667 97.1 71.1111 96.4 73.3333 96.1C75.5556 95.8 77.7778 95.6667 80 95.3C82.2222 94.9333 84.4444 93.9833 86.6667 93.9C88.8889 93.8167 91.1111 94.05 93.3333 94.8C95.5556 95.55 100 98.4 100 98.4" />

<path stroke-width="0.2" stroke="#eeeeee" fill="#cccccc" d="M0 99.4C0 99.4 4.44444 99.4167 6.66667 99.3C8.88889 99.1833 11.1111 98.8667 13.3333 98.7C15.5556 98.5333 17.7778 98.4167 20 98.3C22.2222 98.1833 24.4444 98.0833 26.6667 98C28.8889 97.9167 33.3333 97.8 33.3333 97.8" />

<path stroke-width="0.2" stroke="#eeeeee" fill="#cccccc" d="M0 99.4C0 99.4 4.44444 99.4167 6.66667 99.3C8.88889 99.1833 11.1111 98.8667 13.3333 98.7C15.5556 98.5333 17.7778 98.4167 20 98.3C22.2222 98.1833 24.4444 98.0833 26.6667 98C28.8889 97.9167 33.3333 97.8 33.3333 97.8" />

<path stroke-width="0.2" stroke="#eeeeee" fill="#cccccc" d="M0 98.5C0 98.5 4.44444 98.7833 6.66667 98.8C8.88889 98.8167 11.1111 98.8 13.3333 98.6C15.5556 98.4 17.7778 97.7833 20 97.6C22.2222 97.4167 26.6667 97.5 26.6667 97.5" />

<path stroke-width="0.2" stroke="#eeeeee" fill="#cccccc" d="M0 98.5C0 98.5 4.44444 98.7833 6.66667 98.8C8.88889 98.8167 11.1111 98.8 13.3333 98.6C15.5556 98.4 17.7778 97.7833 20 97.6C22.2222 97.4167 26.6667 97.5 26.6667 97.5" />

<path stroke-width="0.2" stroke="#eeeeee" fill="#cccccc" d="M0 99.9C0 99.9 4.44444 100.033 6.66667 100C8.88889 99.9667 11.1111 99.75 13.3333 99.7C15.5556 99.65 17.7778 99.7333 20 99.7C22.2222 99.6667 26.6667 99.5 26.6667 99.5" />

<path stroke-width="0.2" stroke="#eeeeee" fill="#cccccc" d="M0 99.9C0 99.9 4.44444 100.033 6.66667 100C8.88889 99.9667 11.1111 99.75 13.3333 99.7C15.5556 99.65 17.7778 99.7333 20 99.7C22.2222 99.6667 26.6667 99.5 26.6667 99.5" />

<path stroke-width="0.2" stroke="#eeeeee" fill="#cccccc" d="M0 99.2C0 99.2 4.44444 98.9833 6.66667 99C8.88889 99.0167 11.1111 99.4 13.3333 99.3C15.5556 99.2 17.7778 98.6 20 98.4C22.2222 98.2 26.6667 98.1 26.6667 98.1" />

<path stroke-width="0.2" stroke="#eeeeee" fill="#cccccc" d="M0 99.2C0 99.2 4.44444 98.9833 6.66667 99C8.88889 99.0167 11.1111 99.4 13.3333 99.3C15.5556 99.2 17.7778 98.6 20 98.4C22.2222 98.2 26.6667 98.1 26.6667 98.1" />

<path stroke-width="0.2" stroke="#eeeeee" fill="#cccccc" d="M0 99.8C0 99.8 4.44444 99.65 6.66667 99.6C8.88889 99.55 11.1111 99.55 13.3333 99.5C15.5556 99.45 17.7778 99.3 20 99.3C22.2222 99.3 26.6667 99.5 26.6667 99.5" />

<path stroke-width="0.2" stroke="#eeeeee" fill="#cccccc" d="M0 99.8C0 99.8 4.44444 99.65 6.66667 99.6C8.88889 99.55 11.1111 99.55 13.3333 99.5C15.5556 99.45 17.7778 99.3 20 99.3C22.2222 99.3 26.6667 99.5 26.6667 99.5" />

<path stroke-width="0.2" stroke="#eeeeee" fill="#cccccc" d="M0 99.4C0 99.4 4.44444 99.4 6.66667 99.4C8.88889 99.4 11.1111 99.45 13.3333 99.4C15.5556 99.35 17.7778 99.1833 20 99.1C22.2222 99.0167 26.6667 98.9 26.6667 98.9" />

<path stroke-width="0.2" stroke="#eeeeee" fill="#cccccc" d="M0 99.4C0 99.4 4.44444 99.4 6.66667 99.4C8.88889 99.4 11.1111 99.45 13.3333 99.4C15.5556 99.35 17.7778 99.1833 20 99.1C22.2222 99.0167 26.6667 98.9 26.6667 98.9" />

<path stroke-width="0.2" stroke="#eeeeee" fill="#cccccc" d="M6.66667 99.5C6.66667 99.5 11.1111 99.5333 13.3333 99.5C15.5556 99.4667 17.7778 99.3333 20 99.3C22.2222 99.2667 24.4444 99.3667 26.6667 99.3C28.8889 99.2333 33.3333 98.9 33.3333 98.9" />

<path stroke-width="0.2" stroke="#eeeeee" fill="#cccccc" d="M6.66667 99.5C6.66667 99.5 11.1111 99.5333 13.3333 99.5C15.5556 99.4667 17.7778 99.3333 20 99.3C22.2222 99.2667 24.4444 99.3667 26.6667 99.3C28.8889 99.2333 33.3333 98.9 33.3333 98.9" />

<path stroke-width="0.2" stroke="#eeeeee" fill="#cccccc" d="M6.66667 99.6C6.66667 99.6 11.1111 99.6667 13.3333 99.6C15.5556 99.5333 17.7778 99.2 20 99.2C22.2222 99.2 24.4444 99.6667 26.6667 99.6C28.8889 99.5333 33.3333 98.8 33.3333 98.8" />

<path stroke-width="0.2" stroke="#eeeeee" fill="#cccccc" d="M6.66667 99.6C6.66667 99.6 11.1111 99.6667 13.3333 99.6C15.5556 99.5333 17.7778 99.2 20 99.2C22.2222 99.2 24.4444 99.6667 26.6667 99.6C28.8889 99.5333 33.3333 98.8 33.3333 98.8" />

<path stroke-width="0.2" stroke="#eeeeee" fill="#cccccc" d="M6.66667 99.5C6.66667 99.5 11.1111 99.65 13.3333 99.6C15.5556 99.55 17.7778 99.3 20 99.2C22.2222 99.1 24.4444 99.15 26.6667 99C28.8889 98.85 33.3333 98.3 33.3333 98.3" />

<path stroke-width="0.2" stroke="#eeeeee" fill="#cccccc" d="M6.66667 99.5C6.66667 99.5 11.1111 99.65 13.3333 99.6C15.5556 99.55 17.7778 99.3 20 99.2C22.2222 99.1 24.4444 99.15 26.6667 99C28.8889 98.85 33.3333 98.3 33.3333 98.3" />

<path stroke-width="0.2" stroke="#eeeeee" fill="#cccccc" d="M6.66667 99.7C6.66667 99.7 11.1111 99.7833 13.3333 99.7C15.5556 99.6167 17.7778 99.3333 20 99.2C22.2222 99.0667 24.4444 99.0833 26.6667 98.9C28.8889 98.7167 33.3333 98.1 33.3333 98.1" />

<path stroke-width="0.2" stroke="#eeeeee" fill="#cccccc" d="M6.66667 99.7C6.66667 99.7 11.1111 99.7833 13.3333 99.7C15.5556 99.6167 17.7778 99.3333 20 99.2C22.2222 99.0667 24.4444 99.0833 26.6667 98.9C28.8889 98.7167 33.3333 98.1 33.3333 98.1" />

<path stroke-width="0.2" stroke="#eeeeee" fill="#cccccc" d="M6.66667 98.8C6.66667 98.8 11.1111 98.95 13.3333 98.8C15.5556 98.65 17.7778 98.0667 20 97.9C22.2222 97.7333 24.4444 97.9833 26.6667 97.8C28.8889 97.6167 33.3333 96.8 33.3333 96.8" />

<path stroke-width="0.2" stroke="#eeeeee" fill="#cccccc" d="M6.66667 98.8C6.66667 98.8 11.1111 98.95 13.3333 98.8C15.5556 98.65 17.7778 98.0667 20 97.9C22.2222 97.7333 24.4444 97.9833 26.6667 97.8C28.8889 97.6167 33.3333 96.8 33.3333 96.8" />

<path stroke-width="0.2" stroke="#eeeeee" fill="#cccccc" d="M6.66667 98.9C6.66667 98.9 11.1111 98.9667 13.3333 98.8C15.5556 98.6333 17.7778 98.1 20 97.9C22.2222 97.7 24.4444 97.65 26.6667 97.6C28.8889 97.55 33.3333 97.6 33.3333 97.6" />

<path stroke-width="0.2" stroke="#eeeeee" fill="#cccccc" d="M6.66667 98.9C6.66667 98.9 11.1111 98.9667 13.3333 98.8C15.5556 98.6333 17.7778 98.1 20 97.9C22.2222 97.7 24.4444 97.65 26.6667 97.6C28.8889 97.55 33.3333 97.6 33.3333 97.6" />

<path stroke-width="0.2" stroke="#eeeeee" fill="#cccccc" d="M20 99.7C20 99.7 24.4444 99.2 26.6667 99.1C28.8889 99 31.1111 99.0667 33.3333 99.1C35.5556 99.1333 37.7778 99.3167 40 99.3C42.2222 99.2833 46.6667 99 46.6667 99" />

<path stroke-width="0.2" stroke="#eeeeee" fill="#cccccc" d="M20 99.7C20 99.7 24.4444 99.2 26.6667 99.1C28.8889 99 31.1111 99.0667 33.3333 99.1C35.5556 99.1333 37.7778 99.3167 40 99.3C42.2222 99.2833 46.6667 99 46.6667 99" />

<path stroke-width="0.2" stroke="#eeeeee" fill="#cccccc" d="M20 98.3C20 98.3 24.4444 98.7333 26.6667 98.7C28.8889 98.6667 31.1111 98.2167 33.3333 98.1C35.5556 97.9833 37.7778 97.9 40 98C42.2222 98.1 46.6667 98.7 46.6667 98.7" />

<path stroke-width="0.2" stroke="#eeeeee" fill="#cccccc" d="M20 98.3C20 98.3 24.4444 98.7333 26.6667 98.7C28.8889 98.6667 31.1111 98.2167 33.3333 98.1C35.5556 97.9833 37.7778 97.9 40 98C42.2222 98.1 46.6667 98.7 46.6667 98.7" />

<path stroke-width="0.2" stroke="#eeeeee" fill="#cccccc" d="M26.6667 99.4C26.6667 99.4 31.1111 98.9833 33.3333 99C35.5556 99.0167 37.7778 99.5667 40 99.5C42.2222 99.4333 44.4444 98.8333 46.6667 98.6C48.8889 98.3667 53.3333 98.1 53.3333 98.1" />

<path stroke-width="0.2" stroke="#eeeeee" fill="#cccccc" d="M26.6667 99.4C26.6667 99.4 31.1111 98.9833 33.3333 99C35.5556 99.0167 37.7778 99.5667 40 99.5C42.2222 99.4333 44.4444 98.8333 46.6667 98.6C48.8889 98.3667 53.3333 98.1 53.3333 98.1" />

<path stroke-width="0.2" stroke="#eeeeee" fill="#cccccc" d="M26.6667 99.2C26.6667 99.2 31.1111 99.05 33.3333 99.1C35.5556 99.15 37.7778 99.55 40 99.5C42.2222 99.45 44.4444 98.9 46.6667 98.8C48.8889 98.7 53.3333 98.9 53.3333 98.9" />

<path stroke-width="0.2" stroke="#eeeeee" fill="#cccccc" d="M26.6667 99.2C26.6667 99.2 31.1111 99.05 33.3333 99.1C35.5556 99.15 37.7778 99.55 40 99.5C42.2222 99.45 44.4444 98.9 46.6667 98.8C48.8889 98.7 53.3333 98.9 53.3333 98.9" />

<path stroke-width="0.2" stroke="#eeeeee" fill="#cccccc" d="M26.6667 98.7C26.6667 98.7 31.1111 98.5167 33.3333 98.5C35.5556 98.4833 37.7778 98.5667 40 98.6C42.2222 98.6333 44.4444 98.85 46.6667 98.7C48.8889 98.55 53.3333 97.7 53.3333 97.7" />

<path stroke-width="0.2" stroke="#eeeeee" fill="#cccccc" d="M26.6667 98.7C26.6667 98.7 31.1111 98.5167 33.3333 98.5C35.5556 98.4833 37.7778 98.5667 40 98.6C42.2222 98.6333 44.4444 98.85 46.6667 98.7C48.8889 98.55 53.3333 97.7 53.3333 97.7" />

<path stroke-width="0.2" stroke="#eeeeee" fill="#cccccc" d="M33.3333 97.6C33.3333 97.6 37.7778 98.2167 40 98.2C42.2222 98.1833 44.4444 97.6833 46.6667 97.5C48.8889 97.3167 51.1111 97.3167 53.3333 97.1C55.5556 96.8833 60 96.2 60 96.2" />

<path stroke-width="0.2" stroke="#eeeeee" fill="#cccccc" d="M33.3333 97.6C33.3333 97.6 37.7778 98.2167 40 98.2C42.2222 98.1833 44.4444 97.6833 46.6667 97.5C48.8889 97.3167 51.1111 97.3167 53.3333 97.1C55.5556 96.8833 60 96.2 60 96.2" />

<path stroke-width="0.2" stroke="#eeeeee" fill="#cccccc" d="M33.3333 99.2C33.3333 99.2 37.7778 99.9 40 99.9C42.2222 99.9 44.4444 99.3167 46.6667 99.2C48.8889 99.0833 51.1111 99.1667 53.3333 99.2C55.5556 99.2333 60 99.4 60 99.4" />

<path stroke-width="0.2" stroke="#eeeeee" fill="#cccccc" d="M33.3333 99.2C33.3333 99.2 37.7778 99.9 40 99.9C42.2222 99.9 44.4444 99.3167 46.6667 99.2C48.8889 99.0833 51.1111 99.1667 53.3333 99.2C55.5556 99.2333 60 99.4 60 99.4" />

<path stroke-width="0.2" stroke="#eeeeee" fill="#cccccc" d="M33.3333 98.2C33.3333 98.2 37.7778 98.6167 40 98.6C42.2222 98.5833 44.4444 98.2833 46.6667 98.1C48.8889 97.9167 51.1111 97.5667 53.3333 97.5C55.5556 97.4333 60 97.7 60 97.7" />

<path stroke-width="0.2" stroke="#eeeeee" fill="#cccccc" d="M33.3333 98.2C33.3333 98.2 37.7778 98.6167 40 98.6C42.2222 98.5833 44.4444 98.2833 46.6667 98.1C48.8889 97.9167 51.1111 97.5667 53.3333 97.5C55.5556 97.4333 60 97.7 60 97.7" />

<path stroke-width="0.2" stroke="#eeeeee" fill="#cccccc" d="M33.3333 98.8C33.3333 98.8 37.7778 98.8833 40 99C42.2222 99.1167 44.4444 99.5833 46.6667 99.5C48.8889 99.4167 51.1111 98.65 53.3333 98.5C55.5556 98.35 60 98.6 60 98.6" />

<path stroke-width="0.2" stroke="#eeeeee" fill="#cccccc" d="M33.3333 98.8C33.3333 98.8 37.7778 98.8833 40 99C42.2222 99.1167 44.4444 99.5833 46.6667 99.5C48.8889 99.4167 51.1111 98.65 53.3333 98.5C55.5556 98.35 60 98.6 60 98.6" />

<path stroke-width="0.2" stroke="#eeeeee" fill="#cccccc" d="M33.3333 99.4C33.3333 99.4 37.7778 99.9333 40 100C42.2222 100.067 44.4444 99.8333 46.6667 99.8C48.8889 99.7667 51.1111 99.8667 53.3333 99.8C55.5556 99.7333 60 99.4 60 99.4" />

<path stroke-width="0.2" stroke="#eeeeee" fill="#cccccc" d="M33.3333 99.4C33.3333 99.4 37.7778 99.9333 40 100C42.2222 100.067 44.4444 99.8333 46.6667 99.8C48.8889 99.7667 51.1111 99.8667 53.3333 99.8C55.5556 99.7333 60 99.4 60 99.4" />

<path stroke-width="0.2" stroke="#eeeeee" fill="#cccccc" d="M33.3333 99C33.3333 99 37.7778 99.3667 40 99.3C42.2222 99.2333 44.4444 98.75 46.6667 98.6C48.8889 98.45 51.1111 98.4 53.3333 98.4C55.5556 98.4 60 98.6 60 98.6" />

<path stroke-width="0.2" stroke="#eeeeee" fill="#cccccc" d="M33.3333 99C33.3333 99 37.7778 99.3667 40 99.3C42.2222 99.2333 44.4444 98.75 46.6667 98.6C48.8889 98.45 51.1111 98.4 53.3333 98.4C55.5556 98.4 60 98.6 60 98.6" />

<path stroke-width="0.2" stroke="#eeeeee" fill="#cccccc" d="M40 98.9C40 98.9 44.4444 99.2667 46.6667 99.2C48.8889 99.1333 51.1111 98.7167 53.3333 98.5C55.5556 98.2833 57.7778 97.9833 60 97.9C62.2222 97.8167 66.6667 98 66.6667 98" />

<path stroke-width="0.2" stroke="#eeeeee" fill="#cccccc" d="M40 98.9C40 98.9 44.4444 99.2667 46.6667 99.2C48.8889 99.1333 51.1111 98.7167 53.3333 98.5C55.5556 98.2833 57.7778 97.9833 60 97.9C62.2222 97.8167 66.6667 98 66.6667 98" />

<path stroke-width="0.2" stroke="#eeeeee" fill="#cccccc" d="M40 98C40 98 44.4444 97.1833 46.6667 97C48.8889 96.8167 51.1111 96.9167 53.3333 96.9C55.5556 96.8833 57.7778 96.8 60 96.9C62.2222 97 66.6667 97.5 66.6667 97.5" />

<path stroke-width="0.2" stroke="#eeeeee" fill="#cccccc" d="M40 98C40 98 44.4444 97.1833 46.6667 97C48.8889 96.8167 51.1111 96.9167 53.3333 96.9C55.5556 96.8833 57.7778 96.8 60 96.9C62.2222 97 66.6667 97.5 66.6667 97.5" />

<path stroke-width="0.2" stroke="#eeeeee" fill="#cccccc" d="M46.6667 99.8C46.6667 99.8 51.1111 99.4167 53.3333 99.2C55.5556 98.9833 57.7778 98.5833 60 98.5C62.2222 98.4167 64.4444 98.6333 66.6667 98.7C68.8889 98.7667 73.3333 98.9 73.3333 98.9" />

<path stroke-width="0.2" stroke="#eeeeee" fill="#cccccc" d="M46.6667 99.8C46.6667 99.8 51.1111 99.4167 53.3333 99.2C55.5556 98.9833 57.7778 98.5833 60 98.5C62.2222 98.4167 64.4444 98.6333 66.6667 98.7C68.8889 98.7667 73.3333 98.9 73.3333 98.9" />

<path stroke-width="0.2" stroke="#eeeeee" fill="#cccccc" d="M46.6667 99.5C46.6667 99.5 51.1111 99.3333 53.3333 99.2C55.5556 99.0667 57.7778 98.7 60 98.7C62.2222 98.7 64.4444 99.1167 66.6667 99.2C68.8889 99.2833 73.3333 99.2 73.3333 99.2" />

<path stroke-width="0.2" stroke="#eeeeee" fill="#cccccc" d="M46.6667 99.5C46.6667 99.5 51.1111 99.3333 53.3333 99.2C55.5556 99.0667 57.7778 98.7 60 98.7C62.2222 98.7 64.4444 99.1167 66.6667 99.2C68.8889 99.2833 73.3333 99.2 73.3333 99.2" />

<path stroke-width="0.2" stroke="#eeeeee" fill="#cccccc" d="M46.6667 98.8C46.6667 98.8 51.1111 98.2667 53.3333 98C55.5556 97.7333 57.7778 97.4167 60 97.2C62.2222 96.9833 64.4444 96.8333 66.6667 96.7C68.8889 96.5667 73.3333 96.4 73.3333 96.4" />

<path stroke-width="0.2" stroke="#eeeeee" fill="#cccccc" d="M46.6667 98.8C46.6667 98.8 51.1111 98.2667 53.3333 98C55.5556 97.7333 57.7778 97.4167 60 97.2C62.2222 96.9833 64.4444 96.8333 66.6667 96.7C68.8889 96.5667 73.3333 96.4 73.3333 96.4" />

<path stroke-width="0.2" stroke="#eeeeee" fill="#cccccc" d="M53.3333 98.1C53.3333 98.1 57.7778 97.4 60 97.2C62.2222 97 64.4444 97 66.6667 96.9C68.8889 96.8 71.1111 96.7167 73.3333 96.6C75.5556 96.4833 80 96.2 80 96.2" />

<path stroke-width="0.2" stroke="#eeeeee" fill="#cccccc" d="M53.3333 98.1C53.3333 98.1 57.7778 97.4 60 97.2C62.2222 97 64.4444 97 66.6667 96.9C68.8889 96.8 71.1111 96.7167 73.3333 96.6C75.5556 96.4833 80 96.2 80 96.2" />

<path stroke-width="0.2" stroke="#eeeeee" fill="#cccccc" d="M53.3333 98.3C53.3333 98.3 57.7778 98.1333 60 98.2C62.2222 98.2667 64.4444 98.65 66.6667 98.7C68.8889 98.75 71.1111 98.5333 73.3333 98.5C75.5556 98.4667 80 98.5 80 98.5" />

<path stroke-width="0.2" stroke="#eeeeee" fill="#cccccc" d="M53.3333 98.3C53.3333 98.3 57.7778 98.1333 60 98.2C62.2222 98.2667 64.4444 98.65 66.6667 98.7C68.8889 98.75 71.1111 98.5333 73.3333 98.5C75.5556 98.4667 80 98.5 80 98.5" />

<path stroke-width="0.2" stroke="#eeeeee" fill="#cccccc" d="M53.3333 96C53.3333 96 57.7778 95.4167 60 95.5C62.2222 95.5833 64.4444 96.5 66.6667 96.5C68.8889 96.5 71.1111 95.8667 73.3333 95.5C75.5556 95.1333 80 94.3 80 94.3" />

<path stroke-width="0.2" stroke="#eeeeee" fill="#cccccc" d="M53.3333 96C53.3333 96 57.7778 95.4167 60 95.5C62.2222 95.5833 64.4444 96.5 66.6667 96.5C68.8889 96.5 71.1111 95.8667 73.3333 95.5C75.5556 95.1333 80 94.3 80 94.3" />

<path stroke-width="0.2" stroke="#eeeeee" fill="#cccccc" d="M60 96.2C60 96.2 64.4444 96.5 66.6667 96.3C68.8889 96.1 71.1111 95.3667 73.3333 95C75.5556 94.6333 77.7778 94.3667 80 94.1C82.2222 93.8333 86.6667 93.4 86.6667 93.4" />

<path stroke-width="0.2" stroke="#eeeeee" fill="#cccccc" d="M60 96.2C60 96.2 64.4444 96.5 66.6667 96.3C68.8889 96.1 71.1111 95.3667 73.3333 95C75.5556 94.6333 77.7778 94.3667 80 94.1C82.2222 93.8333 86.6667 93.4 86.6667 93.4" />

<path stroke-width="0.2" stroke="#eeeeee" fill="#cccccc" d="M60 99C60 99 64.4444 98.65 66.6667 98.6C68.8889 98.55 71.1111 98.85 73.3333 98.7C75.5556 98.55 77.7778 97.95 80 97.7C82.2222 97.45 86.6667 97.2 86.6667 97.2" />

<path stroke-width="0.2" stroke="#eeeeee" fill="#cccccc" d="M60 99C60 99 64.4444 98.65 66.6667 98.6C68.8889 98.55 71.1111 98.85 73.3333 98.7C75.5556 98.55 77.7778 97.95 80 97.7C82.2222 97.45 86.6667 97.2 86.6667 97.2" />

<path stroke-width="0.2" stroke="#eeeeee" fill="#cccccc" d="M60 96.3C60 96.3 64.4444 97.1333 66.6667 97.1C68.8889 97.0667 71.1111 96.4167 73.3333 96.1C75.5556 95.7833 77.7778 95.5 80 95.2C82.2222 94.9 86.6667 94.3 86.6667 94.3" />

<path stroke-width="0.2" stroke="#eeeeee" fill="#cccccc" d="M60 96.3C60 96.3 64.4444 97.1333 66.6667 97.1C68.8889 97.0667 71.1111 96.4167 73.3333 96.1C75.5556 95.7833 77.7778 95.5 80 95.2C82.2222 94.9 86.6667 94.3 86.6667 94.3" />

<path stroke-width="0.2" stroke="#eeeeee" fill="#cccccc" d="M60 95.3C60 95.3 64.4444 96.1667 66.6667 96.2C68.8889 96.2333 71.1111 95.8167 73.3333 95.5C75.5556 95.1833 77.7778 94.7167 80 94.3C82.2222 93.8833 86.6667 93 86.6667 93" />

<path stroke-width="0.2" stroke="#eeeeee" fill="#cccccc" d="M60 95.3C60 95.3 64.4444 96.1667 66.6667 96.2C68.8889 96.2333 71.1111 95.8167 73.3333 95.5C75.5556 95.1833 77.7778 94.7167 80 94.3C82.2222 93.8833 86.6667 93 86.6667 93" />

<path stroke-width="0.2" stroke="#eeeeee" fill="#cccccc" d="M66.6667 98.5C66.6667 98.5 71.1111 97.9833 73.3333 97.8C75.5556 97.6167 77.7778 97.7 80 97.4C82.2222 97.1 84.4444 96.2667 86.6667 96C88.8889 95.7333 93.3333 95.8 93.3333 95.8" />

<path stroke-width="0.2" stroke="#eeeeee" fill="#cccccc" d="M66.6667 98.5C66.6667 98.5 71.1111 97.9833 73.3333 97.8C75.5556 97.6167 77.7778 97.7 80 97.4C82.2222 97.1 84.4444 96.2667 86.6667 96C88.8889 95.7333 93.3333 95.8 93.3333 95.8" />

<path stroke-width="0.2" stroke="#eeeeee" fill="#cccccc" d="M66.6667 98.5C66.6667 98.5 71.1111 98.3 73.3333 98.1C75.5556 97.9 77.7778 97.5167 80 97.3C82.2222 97.0833 84.4444 96.9667 86.6667 96.8C88.8889 96.6333 93.3333 96.3 93.3333 96.3" />

<path stroke-width="0.2" stroke="#eeeeee" fill="#cccccc" d="M66.6667 98.5C66.6667 98.5 71.1111 98.3 73.3333 98.1C75.5556 97.9 77.7778 97.5167 80 97.3C82.2222 97.0833 84.4444 96.9667 86.6667 96.8C88.8889 96.6333 93.3333 96.3 93.3333 96.3" />

<path stroke-width="0.2" stroke="#eeeeee" fill="#cccccc" d="M73.3333 95.4C73.3333 95.4 77.7778 94.55 80 94.2C82.2222 93.85 84.4444 93.35 86.6667 93.3C88.8889 93.25 91.1111 93.1 93.3333 93.9C95.5556 94.7 100 98.1 100 98.1" />

<path stroke-width="0.2" stroke="#eeeeee" fill="#cccccc" d="M73.3333 95.4C73.3333 95.4 77.7778 94.55 80 94.2C82.2222 93.85 84.4444 93.35 86.6667 93.3C88.8889 93.25 91.1111 93.1 93.3333 93.9C95.5556 94.7 100 98.1 100 98.1" />

<path stroke-width="0.2" stroke="#eeeeee" fill="#cccccc" d="M73.3333 97.2C73.3333 97.2 77.7778 97.3833 80 97.1C82.2222 96.8167 84.4444 95.7 86.6667 95.5C88.8889 95.3 91.1111 95.4167 93.3333 95.9C95.5556 96.3833 100 98.4 100 98.4" />

<path stroke-width="0.2" stroke="#eeeeee" fill="#cccccc" d="M73.3333 97.2C73.3333 97.2 77.7778 97.3833 80 97.1C82.2222 96.8167 84.4444 95.7 86.6667 95.5C88.8889 95.3 91.1111 95.4167 93.3333 95.9C95.5556 96.3833 100 98.4 100 98.4" />

<path stroke-width="0.2" stroke="#eeeeee" fill="#cccccc" d="M73.3333 98.4C73.3333 98.4 77.7778 97.2667 80 97C82.2222 96.7333 84.4444 96.9 86.6667 96.8C88.8889 96.7 91.1111 96.05 93.3333 96.4C95.5556 96.75 100 98.9 100 98.9" />

<path stroke-width="0.2" stroke="#eeeeee" fill="#cccccc" d="M73.3333 98.4C73.3333 98.4 77.7778 97.2667 80 97C82.2222 96.7333 84.4444 96.9 86.6667 96.8C88.8889 96.7 91.1111 96.05 93.3333 96.4C95.5556 96.75 100 98.9 100 98.9" />

<path stroke-width="0.2" stroke="#eeeeee" fill="#cccccc" d="M73.3333 98.7C73.3333 98.7 77.7778 98.8167 80 98.6C82.2222 98.3833 84.4444 97.4833 86.6667 97.4C88.8889 97.3167 91.1111 97.8 93.3333 98.1C95.5556 98.4 100 99.2 100 99.2" />

<path stroke-width="0.2" stroke="#eeeeee" fill="#cccccc" d="M73.3333 98.7C73.3333 98.7 77.7778 98.8167 80 98.6C82.2222 98.3833 84.4444 97.4833 86.6667 97.4C88.8889 97.3167 91.1111 97.8 93.3333 98.1C95.5556 98.4 100 99.2 100 99.2" />

<path stroke-width="0.2" stroke="#eeeeee" fill="#cccccc" d="M73.3333 95.5C73.3333 95.5 77.7778 95.2667 80 94.9C82.2222 94.5333 84.4444 93.5167 86.6667 93.3C88.8889 93.0833 91.1111 92.8167 93.3333 93.6C95.5556 94.3833 100 98 100 98" />

<path stroke-width="0.2" stroke="#eeeeee" fill="#cccccc" d="M73.3333 95.5C73.3333 95.5 77.7778 95.2667 80 94.9C82.2222 94.5333 84.4444 93.5167 86.6667 93.3C88.8889 93.0833 91.1111 92.8167 93.3333 93.6C95.5556 94.3833 100 98 100 98" />

<path stroke-width="0.2" stroke="#eeeeee" fill="#cccccc" d="M73.3333 94.9C73.3333 94.9 77.7778 94.3 80 94.1C82.2222 93.9 84.4444 93.8833 86.6667 93.7C88.8889 93.5167 91.1111 92.2667 93.3333 93C95.5556 93.7333 100 98.1 100 98.1" />

<path stroke-width="0.2" stroke="#eeeeee" fill="#cccccc" d="M73.3333 94.9C73.3333 94.9 77.7778 94.3 80 94.1C82.2222 93.9 84.4444 93.8833 86.6667 93.7C88.8889 93.5167 91.1111 92.2667 93.3333 93C95.5556 93.7333 100 98.1 100 98.1" />

<path stroke-width="0.2" stroke="#eeeeee" fill="#cccccc" d="M73.3333 98.3C73.3333 98.3 77.7778 97.5667 80 97.2C82.2222 96.8333 84.4444 96.15 86.6667 96.1C88.8889 96.05 91.1111 96.4 93.3333 96.9C95.5556 97.4 100 99.1 100 99.1" />

<path stroke-width="0.2" stroke="#eeeeee" fill="#cccccc" d="M73.3333 98.3C73.3333 98.3 77.7778 97.5667 80 97.2C82.2222 96.8333 84.4444 96.15 86.6667 96.1C88.8889 96.05 91.1111 96.4 93.3333 96.9C95.5556 97.4 100 99.1 100 99.1" />

</g>

</svg>

