<?xml version="1.0" standalone="no"?>
<!DOCTYPE svg PUBLIC "-//W3C//DTD SVG 1.1//EN" "http://www.w3.org/Graphics/SVG/1.1/DTD/svg11.dtd">

<svg style="stroke-linejoin:round; stroke:black; stroke-width:0.5pt; text-anchor:middle; fill:none" xmlns="http://www.w3.org/2000/svg" font-family="Helvetica, Arial, FreeSans, Sans, sans, sans-serif" height="400px" width="400px" version="1.1" xmlns:xlink="http://www.w3.org/1999/xlink" viewBox="0 0 100 100">

<g id="Tubes">

<path stroke-width="0.2" stroke="#eeeeee" fill="#cccccc" d="M40.5405 93.5C40.5405 93.5 42.3423 95.85 43.2432 96.3C44.1441 96.75 45.045 96.3167 45.9459 96.2C46.8468 96.0833 47.7477 95.55 48.6486 95.6C49.5495 95.65 50.4505 96.25 51.3514 96.5C52.2523 96.75 53.1532 97.7167 54.0541 97.1C54.955 96.4833 55.8559 93.0833 56.7568 92.8C57.6577 92.5167 58.5586 94.7667 59.4595 95.4C60.3604 96.0333 61.2613 96.2833 62.1622 96.6C63.0631 96.9167 63.964 96.9 64.8649 97.3C65.7658 97.7 67.5676 99 67.5676 99" />

<path stroke-width="0.2" stroke="#eeeeee" fill="#cccccc" d="M40.5405 93.5C40.5405 93.5 42.3423 95.85 43.2432 96.3C44.1441 96.75 45.045 96.3167 45.9459 96.2C46.8468 96.0833 47.7477 95.55 48.6486 95.6C49.5495 95.65 50.4505 96.25 51.3514 96.5C52.2523 96.75 53.1532 97.7167 54.0541 97.1C54.955 96.4833 55.8559 93.0833 56.7568 92.8C57.6577 92.5167 58.5586 94.7667 59.4595 95.4C60.3604 96.0333 61.2613 96.2833 62.1622 96.6C63.0631 96.9167 63.964 96.9 64.8649 97.3C65.7658 97.7 67.5676 99 67.5676 99" />

<path stroke-width="0.2" stroke="#eeeeee" fill="#cccccc" d="M64.8649 90.8C64.8649 90.8 66.6667 95.65 67.5676 95.9C68.4685 96.15 69.3694 91.8 70.2703 92.3C71.1712 92.8 72.0721 98 72.973 98.9C73.8739 99.8 74.7748 97.9 75.6757 97.7C76.5766 97.5 77.4775 97.4667 78.3784 97.7C79.2793 97.9333 80.1802 99.2667 81.0811 99.1C81.982 98.9333 82.8829 97.5667 83.7838 96.7C84.6847 95.8333 85.5856 94.2667 86.4865 93.9C87.3874 93.5333 88.2883 93.9333 89.1892 94.5C90.0901 95.0667 90.991 96.4667 91.8919 97.3C92.7928 98.1333 93.6937 99.1833 94.5946 99.5C95.4955 99.8167 96.3964 99.2667 97.2973 99.2C98.1982 99.1333 100 99.1 100 99.1" />

<path stroke-width="0.2" stroke="#eeeeee" fill="#cccccc" d="M64.8649 90.8C64.8649 90.8 66.6667 95.65 67.5676 95.9C68.4685 96.15 69.3694 91.8 70.2703 92.3C71.1712 92.8 72.0721 98 72.973 98.9C73.8739 99.8 74.7748 97.9 75.6757 97.7C76.5766 97.5 77.4775 97.4667 78.3784 97.7C79.2793 97.9333 80.1802 99.2667 81.0811 99.1C81.982 98.9333 82.8829 97.5667 83.7838 96.7C84.6847 95.8333 85.5856 94.2667 86.4865 93.9C87.3874 93.5333 88.2883 93.9333 89.1892 94.5C90.0901 95.0667 90.991 96.4667 91.8919 97.3C92.7928 98.1333 93.6937 99.1833 94.5946 99.5C95.4955 99.8167 96.3964 99.2667 97.2973 99.2C98.1982 99.1333 100 99.1 100 99.1" />

<path stroke-width="0.2" stroke="#eeeeee" fill="#cccccc" d="M0 94.5C0 94.5 1.8018 95.0333 2.7027 95.1C3.6036 95.1667 4.5045 95.1 5.40541 94.9C6.30631 94.7 7.20721 93.9667 8.10811 93.9C9.00901 93.8333 9.90991 94.6167 10.8108 94.5C11.7117 94.3833 12.6126 93.5 13.5135 93.2C14.4144 92.9 15.3153 92.15 16.2162 92.7C17.1171 93.25 18.018 96.3 18.9189 96.5C19.8198 96.7 20.7207 94.05 21.6216 93.9C22.5225 93.75 23.4234 95.1667 24.3243 95.6C25.2252 96.0333 26.1261 97.2667 27.027 96.5C27.9279 95.7333 28.8288 91.45 29.7297 91C30.6306 90.55 31.5315 92.95 32.4324 93.8C33.3333 94.65 34.2342 96.9333 35.1351 96.1C36.036 95.2667 36.9369 90.1167 37.8378 88.8C38.7387 87.4833 39.6396 87.3167 40.5405 88.2C41.4414 89.0833 43.2432 94.1 43.2432 94.1" />

<path stroke-width="0.2" stroke="#eeeeee" fill="#cccccc" d="M0 94.5C0 94.5 1.8018 95.0333 2.7027 95.1C3.6036 95.1667 4.5045 95.1 5.40541 94.9C6.30631 94.7 7.20721 93.9667 8.10811 93.9C9.00901 93.8333 9.90991 94.6167 10.8108 94.5C11.7117 94.3833 12.6126 93.5 13.5135 93.2C14.4144 92.9 15.3153 92.15 16.2162 92.7C17.1171 93.25 18.018 96.3 18.9189 96.5C19.8198 96.7 20.7207 94.05 21.6216 93.9C22.5225 93.75 23.4234 95.1667 24.3243 95.6C25.2252 96.0333 26.1261 97.2667 27.027 96.5C27.9279 95.7333 28.8288 91.45 29.7297 91C30.6306 90.55 31.5315 92.95 32.4324 93.8C33.3333 94.65 34.2342 96.9333 35.1351 96.1C36.036 95.2667 36.9369 90.1167 37.8378 88.8C38.7387 87.4833 39.6396 87.3167 40.5405 88.2C41.4414 89.0833 43.2432 94.1 43.2432 94.1" />

</g>

</svg>

