<?xml version="1.0" standalone="no"?>
<!DOCTYPE svg PUBLIC "-//W3C//DTD SVG 1.1//EN" "http://www.w3.org/Graphics/SVG/1.1/DTD/svg11.dtd">

<svg style="stroke-linejoin:round; stroke:black; stroke-width:0.5pt; text-anchor:middle; fill:none" xmlns="http://www.w3.org/2000/svg" font-family="Helvetica, Arial, FreeSans, Sans, sans, sans-serif" height="400px" width="400px" version="1.1" xmlns:xlink="http://www.w3.org/1999/xlink" viewBox="0 0 100 100">

<g id="Tubes">

<path stroke-width="0.2" stroke="#eeeeee" fill="#cccccc" d="M10.5263 93.2C10.5263 93.2 14.0351 93.2 15.7895 93.2C17.5439 93.2 19.2982 93.2 21.0526 93.2C22.807 93.2 24.5614 93.2 26.3158 93.2C28.0702 93.2 29.8246 93.2 31.5789 93.2C33.3333 93.2 35.0877 93.2 36.8421 93.2C38.5965 93.2 40.3509 93.2 42.1053 93.2C43.8596 93.2 45.614 93.2 47.3684 93.2C49.1228 93.2 50.8772 93.2 52.6316 93.2C54.386 93.2 56.1404 93.2 57.8947 93.2C59.6491 93.2 61.4035 93.2 63.1579 93.2C64.9123 93.2 67.5439 93.3 68.4211 93.2C69.2982 93.1 69.2982 92.8 68.4211 92.6C67.5439 92.4 64.9123 92.0833 63.1579 92C61.4035 91.9167 59.6491 92.2333 57.8947 92.1C56.1404 91.9667 54.386 91.6333 52.6316 91.2C50.8772 90.7667 49.1228 89.8667 47.3684 89.5C45.614 89.1333 43.8596 89.4 42.1053 89C40.3509 88.6 38.5965 86.9167 36.8421 87.1C35.0877 87.2833 33.3333 89.5167 31.5789 90.1C29.8246 90.6833 28.0702 90.65 26.3158 90.6C24.5614 90.55 22.807 89.5667 21.0526 89.8C19.2982 90.0333 17.5439 91.6167 15.7895 92C14.0351 92.3833 11.4035 91.9 10.5263 92.1C9.64912 92.3 10.5263 93.2 10.5263 93.2" />

<path stroke-width="0.2" stroke="#eeeeee" fill="#cccccc" d="M10.5263 93.2C10.5263 93.2 14.0351 93.2 15.7895 93.2C17.5439 93.2 19.2982 93.2 21.0526 93.2C22.807 93.2 24.5614 93.2 26.3158 93.2C28.0702 93.2 29.8246 93.2 31.5789 93.2C33.3333 93.2 35.0877 93.2 36.8421 93.2C38.5965 93.2 40.3509 93.2 42.1053 93.2C43.8596 93.2 45.614 93.2 47.3684 93.2C49.1228 93.2 50.8772 93.2 52.6316 93.2C54.386 93.2 56.1404 93.2 57.8947 93.2C59.6491 93.2 61.4035 93.2 63.1579 93.2C64.9123 93.2 67.5439 93.3 68.4211 93.2C69.2982 93.1 69.2982 92.8 68.4211 92.6C67.5439 92.4 64.9123 92.0833 63.1579 92C61.4035 91.9167 59.6491 92.2333 57.8947 92.1C56.1404 91.9667 54.386 91.6333 52.6316 91.2C50.8772 90.7667 49.1228 89.8667 47.3684 89.5C45.614 89.1333 43.8596 89.4 42.1053 89C40.3509 88.6 38.5965 86.9167 36.8421 87.1C35.0877 87.2833 33.3333 89.5167 31.5789 90.1C29.8246 90.6833 28.0702 90.65 26.3158 90.6C24.5614 90.55 22.807 89.5667 21.0526 89.8C19.2982 90.0333 17.5439 91.6167 15.7895 92C14.0351 92.3833 11.4035 91.9 10.5263 92.1C9.64912 92.3 10.5263 93.2 10.5263 93.2" />

<path stroke-width="0.2" stroke="#eeeeee" fill="#cccccc" d="M0 87C0 87 3.50877 87 5.26316 87C7.01754 87 8.77193 87 10.5263 87C12.2807 87 14.0351 87 15.7895 87C17.5439 87 19.2982 87 21.0526 87C22.807 87 24.5614 87 26.3158 87C28.0702 87 29.8246 87 31.5789 87C33.3333 87 35.0877 87 36.8421 87C38.5965 87 40.3509 87 42.1053 87C43.8596 87 45.614 87 47.3684 87C49.1228 87 50.8772 87 52.6316 87C54.386 87 56.1404 87 57.8947 87C59.6491 87 61.4035 87 63.1579 87C64.9123 87 66.6667 87 68.4211 87C70.1754 87 71.9298 87 73.6842 87C75.4386 87 77.193 87 78.9474 87C80.7018 87 82.4561 87 84.2105 87C85.9649 87 87.7193 87 89.4737 87C91.2281 87 92.9825 87 94.7368 87C96.4912 87 99.1228 87.8667 100 87C100.877 86.1333 100.877 82.5833 100 81.8C99.1228 81.0167 96.4912 82 94.7368 82.3C92.9825 82.6 91.2281 82.9667 89.4737 83.6C87.7193 84.2333 85.9649 85.6167 84.2105 86.1C82.4561 86.5833 80.7018 86.7333 78.9474 86.5C77.193 86.2667 75.4386 84.7833 73.6842 84.7C71.9298 84.6167 70.1754 85.9 68.4211 86C66.6667 86.1 64.9123 85.3667 63.1579 85.3C61.4035 85.2333 59.6491 85.8333 57.8947 85.6C56.1404 85.3667 54.386 84.2833 52.6316 83.9C50.8772 83.5167 49.1228 83.5 47.3684 83.3C45.614 83.1 43.8596 83.45 42.1053 82.7C40.3509 81.95 38.5965 78.7167 36.8421 78.8C35.0877 78.8833 33.3333 82.4 31.5789 83.2C29.8246 84 28.0702 83.7333 26.3158 83.6C24.5614 83.4667 22.807 82.5833 21.0526 82.4C19.2982 82.2167 17.5439 82.3833 15.7895 82.5C14.0351 82.6167 12.2807 83.3167 10.5263 83.1C8.77193 82.8833 7.01754 81.45 5.26316 81.2C3.50877 80.95 0.877193 80.6333 0 81.6C-0.877193 82.5667 0 87 0 87" />

<path stroke-width="0.2" stroke="#eeeeee" fill="#cccccc" d="M0 87C0 87 3.50877 87 5.26316 87C7.01754 87 8.77193 87 10.5263 87C12.2807 87 14.0351 87 15.7895 87C17.5439 87 19.2982 87 21.0526 87C22.807 87 24.5614 87 26.3158 87C28.0702 87 29.8246 87 31.5789 87C33.3333 87 35.0877 87 36.8421 87C38.5965 87 40.3509 87 42.1053 87C43.8596 87 45.614 87 47.3684 87C49.1228 87 50.8772 87 52.6316 87C54.386 87 56.1404 87 57.8947 87C59.6491 87 61.4035 87 63.1579 87C64.9123 87 66.6667 87 68.4211 87C70.1754 87 71.9298 87 73.6842 87C75.4386 87 77.193 87 78.9474 87C80.7018 87 82.4561 87 84.2105 87C85.9649 87 87.7193 87 89.4737 87C91.2281 87 92.9825 87 94.7368 87C96.4912 87 99.1228 87.8667 100 87C100.877 86.1333 100.877 82.5833 100 81.8C99.1228 81.0167 96.4912 82 94.7368 82.3C92.9825 82.6 91.2281 82.9667 89.4737 83.6C87.7193 84.2333 85.9649 85.6167 84.2105 86.1C82.4561 86.5833 80.7018 86.7333 78.9474 86.5C77.193 86.2667 75.4386 84.7833 73.6842 84.7C71.9298 84.6167 70.1754 85.9 68.4211 86C66.6667 86.1 64.9123 85.3667 63.1579 85.3C61.4035 85.2333 59.6491 85.8333 57.8947 85.6C56.1404 85.3667 54.386 84.2833 52.6316 83.9C50.8772 83.5167 49.1228 83.5 47.3684 83.3C45.614 83.1 43.8596 83.45 42.1053 82.7C40.3509 81.95 38.5965 78.7167 36.8421 78.8C35.0877 78.8833 33.3333 82.4 31.5789 83.2C29.8246 84 28.0702 83.7333 26.3158 83.6C24.5614 83.4667 22.807 82.5833 21.0526 82.4C19.2982 82.2167 17.5439 82.3833 15.7895 82.5C14.0351 82.6167 12.2807 83.3167 10.5263 83.1C8.77193 82.8833 7.01754 81.45 5.26316 81.2C3.50877 80.95 0.877193 80.6333 0 81.6C-0.877193 82.5667 0 87 0 87" />

</g>

</svg>

