<?xml version="1.0" standalone="no"?>
<!DOCTYPE svg PUBLIC "-//W3C//DTD SVG 1.1//EN" "http://www.w3.org/Graphics/SVG/1.1/DTD/svg11.dtd">

<svg style="stroke-linejoin:round; stroke:black; stroke-width:0.5pt; text-anchor:middle; fill:none" xmlns="http://www.w3.org/2000/svg" font-family="Helvetica, Arial, FreeSans, Sans, sans, sans-serif" height="400px" width="400px" version="1.1" xmlns:xlink="http://www.w3.org/1999/xlink" viewBox="0 0 100 100">

<g>

<g>

<path stroke-width="0.25pt" d="M6.5 50.75L6.5 49.25M8 50.75L8 49.25M9.5 50.75L9.5 49.25M11 50.75L11 49.25M12.5 50.75L12.5 49.25M14 50.75L14 49.25M15.5 50.75L15.5 49.25M17 50.75L17 49.25M18.5 50.75L18.5 49.25M21.5 50.75L21.5 49.25M23 50.75L23 49.25M24.5 50.75L24.5 49.25M26 50.75L26 49.25M27.5 50.75L27.5 49.25M29 50.75L29 49.25M30.5 50.75L30.5 49.25M32 50.75L32 49.25M33.5 50.75L33.5 49.25M36.5 50.75L36.5 49.25M38 50.75L38 49.25M39.5 50.75L39.5 49.25M41 50.75L41 49.25M42.5 50.75L42.5 49.25M44 50.75L44 49.25M45.5 50.75L45.5 49.25M47 50.75L47 49.25M48.5 50.75L48.5 49.25M51.5 50.75L51.5 49.25M53 50.75L53 49.25M54.5 50.75L54.5 49.25M56 50.75L56 49.25M57.5 50.75L57.5 49.25M59 50.75L59 49.25M60.5 50.75L60.5 49.25M62 50.75L62 49.25M63.5 50.75L63.5 49.25M66.5 50.75L66.5 49.25M68 50.75L68 49.25M69.5 50.75L69.5 49.25M71 50.75L71 49.25M72.5 50.75L72.5 49.25M74 50.75L74 49.25M75.5 50.75L75.5 49.25M77 50.75L77 49.25M78.5 50.75L78.5 49.25M81.5 50.75L81.5 49.25M83 50.75L83 49.25M84.5 50.75L84.5 49.25M86 50.75L86 49.25M87.5 50.75L87.5 49.25M89 50.75L89 49.25M90.5 50.75L90.5 49.25M92 50.75L92 49.25M93.5 50.75L93.5 49.25" />

<path stroke-width="0.25pt" d="M50 51.5L50 48.5M65 51.5L65 48.5M80 51.5L80 48.5M35 51.5L35 48.5M20 51.5L20 48.5" />

<defs>

<marker refY="3.6" refX="9" markerUnits="strokeWidth" viewBox="0 0 10.5 7.2" stroke="none" id="a.xstart" markerWidth="10.5" fill="black" orient="auto" markerHeight="7.2">

<path d="M 9 3.6 L 10.5 0 L 0 3.6 L 10.5 7.2 L 9 3.6 Z" />

</marker>

<marker refY="3.6" refX="1.5" markerUnits="strokeWidth" viewBox="0 0 10.5 7.2" stroke="none" id="a.xend" markerWidth="10.5" fill="black" orient="auto" markerHeight="7.2">

<path d="M 1.5 3.6 L 0 0 L 10.5 3.6 L 0 7.2 L 1.5 3.6 Z" />

</marker>

</defs>

<text font-size="5" transform="translate(65, 51) rotate(0)" stroke="none" dominant-baseline="text-before-edge" fill="black">1</text>

<text font-size="5" transform="translate(80, 51) rotate(0)" stroke="none" dominant-baseline="text-before-edge" fill="black">2</text>

<text font-size="5" transform="translate(95, 51) rotate(0)" stroke="none" dominant-baseline="text-before-edge" fill="black">3</text>

<text font-size="5" transform="translate(35, 51) rotate(0)" stroke="none" dominant-baseline="text-before-edge" fill="black">–1</text>

<text font-size="5" transform="translate(5, 51) rotate(0)" stroke="none" dominant-baseline="text-before-edge" fill="black">–3</text>

<text font-size="5" transform="translate(20, 51) rotate(0)" stroke="none" dominant-baseline="text-before-edge" fill="black">–2</text>

<g marker-start="url(#a.xstart)" marker-end="url(#a.xend)">

<defs>

<marker refY="3.6" refX="9" markerUnits="strokeWidth" viewBox="0 0 10.5 7.2" stroke="none" id="a.xstart" markerWidth="10.5" fill="black" orient="auto" markerHeight="7.2">

<path d="M 9 3.6 L 10.5 0 L 0 3.6 L 10.5 7.2 L 9 3.6 Z" />

</marker>

<marker refY="3.6" refX="1.5" markerUnits="strokeWidth" viewBox="0 0 10.5 7.2" stroke="none" id="a.xend" markerWidth="10.5" fill="black" orient="auto" markerHeight="7.2">

<path d="M 1.5 3.6 L 0 0 L 10.5 3.6 L 0 7.2 L 1.5 3.6 Z" />

</marker>

</defs>

<path marker-start="url(#a.xstart)" stroke-width="0.25pt" marker-end="url(#a.xend)" d="M5 50L95 50" />

</g>

<path stroke-width="0.25pt" d="M50.75 93.5L49.25 93.5M50.75 92L49.25 92M50.75 90.5L49.25 90.5M50.75 89L49.25 89M50.75 87.5L49.25 87.5M50.75 86L49.25 86M50.75 84.5L49.25 84.5M50.75 83L49.25 83M50.75 81.5L49.25 81.5M50.75 78.5L49.25 78.5M50.75 77L49.25 77M50.75 75.5L49.25 75.5M50.75 74L49.25 74M50.75 72.5L49.25 72.5M50.75 71L49.25 71M50.75 69.5L49.25 69.5M50.75 68L49.25 68M50.75 66.5L49.25 66.5M50.75 63.5L49.25 63.5M50.75 62L49.25 62M50.75 60.5L49.25 60.5M50.75 59L49.25 59M50.75 57.5L49.25 57.5M50.75 56L49.25 56M50.75 54.5L49.25 54.5M50.75 53L49.25 53M50.75 51.5L49.25 51.5M50.75 48.5L49.25 48.5M50.75 47L49.25 47M50.75 45.5L49.25 45.5M50.75 44L49.25 44M50.75 42.5L49.25 42.5M50.75 41L49.25 41M50.75 39.5L49.25 39.5M50.75 38L49.25 38M50.75 36.5L49.25 36.5M50.75 33.5L49.25 33.5M50.75 32L49.25 32M50.75 30.5L49.25 30.5M50.75 29L49.25 29M50.75 27.5L49.25 27.5M50.75 26L49.25 26M50.75 24.5L49.25 24.5M50.75 23L49.25 23M50.75 21.5L49.25 21.5M50.75 18.5L49.25 18.5M50.75 17L49.25 17M50.75 15.5L49.25 15.5M50.75 14L49.25 14M50.75 12.5L49.25 12.5M50.75 11L49.25 11M50.75 9.5L49.25 9.5M50.75 8L49.25 8M50.75 6.5L49.25 6.5" />

<path stroke-width="0.25pt" d="M51.5 50L48.5 50M51.5 35L48.5 35M51.5 20L48.5 20M51.5 65L48.5 65M51.5 80L48.5 80" />

<defs>

<marker refY="3.6" refX="9" markerUnits="strokeWidth" viewBox="0 0 10.5 7.2" stroke="none" id="a.ystart" markerWidth="10.5" fill="black" orient="auto" markerHeight="7.2">

<path d="M 9 3.6 L 10.5 0 L 0 3.6 L 10.5 7.2 L 9 3.6 Z" />

</marker>

<marker refY="3.6" refX="1.5" markerUnits="strokeWidth" viewBox="0 0 10.5 7.2" stroke="none" id="a.yend" markerWidth="10.5" fill="black" orient="auto" markerHeight="7.2">

<path d="M 1.5 3.6 L 0 0 L 10.5 3.6 L 0 7.2 L 1.5 3.6 Z" />

</marker>

</defs>

<text font-size="5" transform="translate(47.5, 35) rotate(0)" text-anchor="end" stroke="none" dominant-baseline="middle" fill="black">1</text>

<text font-size="5" transform="translate(47.5, 20) rotate(0)" text-anchor="end" stroke="none" dominant-baseline="middle" fill="black">2</text>

<text font-size="5" transform="translate(47.5, 5) rotate(0)" text-anchor="end" stroke="none" dominant-baseline="middle" fill="black">3</text>

<text font-size="5" transform="translate(47.5, 65) rotate(0)" text-anchor="end" stroke="none" dominant-baseline="middle" fill="black">–1</text>

<text font-size="5" transform="translate(47.5, 95) rotate(0)" text-anchor="end" stroke="none" dominant-baseline="middle" fill="black">–3</text>

<text font-size="5" transform="translate(47.5, 80) rotate(0)" text-anchor="end" stroke="none" dominant-baseline="middle" fill="black">–2</text>

<g marker-start="url(#a.ystart)" marker-end="url(#a.yend)">

<defs>

<marker refY="3.6" refX="9" markerUnits="strokeWidth" viewBox="0 0 10.5 7.2" stroke="none" id="a.ystart" markerWidth="10.5" fill="black" orient="auto" markerHeight="7.2">

<path d="M 9 3.6 L 10.5 0 L 0 3.6 L 10.5 7.2 L 9 3.6 Z" />

</marker>

<marker refY="3.6" refX="1.5" markerUnits="strokeWidth" viewBox="0 0 10.5 7.2" stroke="none" id="a.yend" markerWidth="10.5" fill="black" orient="auto" markerHeight="7.2">

<path d="M 1.5 3.6 L 0 0 L 10.5 3.6 L 0 7.2 L 1.5 3.6 Z" />

</marker>

</defs>

<path marker-start="url(#a.ystart)" stroke-width="0.25pt" marker-end="url(#a.yend)" d="M50 95L50 5" />

</g>

</g>

<path stroke-width="0.1" stroke="#eeeeee" fill="#cccccc" d="M29960 -18220L29975 -18220L29990 -18220L30005 -18220L30020 -18220L30035 -18220L30035 -18295L30020 -18280L30005 -18280L29990 -18235L29975 -18220L29960 -18250L29960 -18220" />

</g>

</svg>

